<?xml version="1.0" encoding="UTF-8"?>
<!-- Generated by Pixelmator Pro 3.3.13 -->
<svg width="5578" height="470" viewBox="0 0 5578 470" xmlns="http://www.w3.org/2000/svg">
    <g id="Rectangle-copy">
        <path id="Rectangle" fill="#d939ab" fill-rule="evenodd" stroke="none" visibility="hidden" d="M 0 895 L 5578 895 L 5578 -524.971191 L 0 -524.971191 Z"/>
        <linearGradient id="linearGradient1" x1="3627.711372" y1="423.983717" x2="3627.711372" y2="79.33444" gradientUnits="userSpaceOnUse">
            <stop offset="0" stop-color="#ffa800" stop-opacity="1"/>
            <stop offset="1" stop-color="#ffcc01" stop-opacity="1"/>
        </linearGradient>
        <path id="Ellipse-copy-3" fill="url(#linearGradient1)" fill-rule="evenodd" stroke="none" visibility="hidden" d="M 3798.30957 251.825287 C 3798.30957 156.666748 3721.168213 79.525177 3626.009521 79.525177 C 3530.850586 79.525177 3453.709229 156.666748 3453.709229 251.825287 C 3453.709229 346.984131 3530.850586 424.125397 3626.009521 424.125397 C 3721.168213 424.125397 3798.30957 346.984131 3798.30957 251.825287 Z"/>
        <path id="Path-copy" fill="none" stroke="#000000" stroke-width="20" stroke-linecap="round" stroke-linejoin="round" d="M -194 278.61615 L 2255.187256 278.937439 L 2330.929688 213.565002 L 2416.138916 341.586029 L 2539.219482 131.849487 L 2667.03418 458.7117 L 2785.380859 11.999908 L 2927.397217 360.652893 L 3041.01001 191.7742 L 3159.356689 341.586029 L 3230.364502 278.937439 L 5734.000488 279.284607 L 5734.000488 875 C 5734.000488 875 -194 877 -194 877 Z"/>
        <linearGradient id="linearGradient2" x1="3083.659852" y1="944.63445" x2="3083.659852" y2="-50.433704" gradientUnits="userSpaceOnUse">
            <stop offset="0" stop-color="#ffa800" stop-opacity="1"/>
            <stop offset="1" stop-color="#ffcc01" stop-opacity="1"/>
        </linearGradient>
        <path id="Path-copy-2" fill="url(#linearGradient2)" fill-rule="evenodd" stroke="#000000" stroke-width="45" stroke-linecap="round" stroke-linejoin="round" visibility="hidden" d="M -95 348.999969 L 2255.187256 349.480774 L 2330.929443 251.677597 L 2416.138916 443.208954 L 2539.219482 129.423248 L 2667.03418 618.439819 L 2785.380615 -49.882935 L 2927.397217 471.734558 L 3041.01001 219.07634 L 3159.356689 443.208954 L 3230.364502 349.480774 L 6207 349.999939 C 6207 349.999939 6194 939 6198 943 C 6217.580566 962.580688 -102 835 -102 835 Z"/>
    </g>
</svg>
